<svg xmlns="http://www.w3.org/2000/svg" width="20" height="20" viewBox="0 0 20 20" fill="none">
<path d="M14.1667 7.49935V5.83268C14.1667 5.39065 13.9911 4.96673 13.6785 4.65417C13.366 4.34161 12.942 4.16602 12.5 4.16602H4.16667C3.72464 4.16602 3.30072 4.34161 2.98816 4.65417C2.67559 4.96673 2.5 5.39065 2.5 5.83268V10.8327C2.5 11.2747 2.67559 11.6986 2.98816 12.0112C3.30072 12.3238 3.72464 12.4993 4.16667 12.4993H5.83333M7.5 15.8327H15.8333C16.2754 15.8327 16.6993 15.6571 17.0118 15.3445C17.3244 15.032 17.5 14.608 17.5 14.166V9.16602C17.5 8.72399 17.3244 8.30007 17.0118 7.98751C16.6993 7.67494 16.2754 7.49935 15.8333 7.49935H7.5C7.05797 7.49935 6.63405 7.67494 6.32149 7.98751C6.00893 8.30007 5.83333 8.72399 5.83333 9.16602V14.166C5.83333 14.608 6.00893 15.032 6.32149 15.3445C6.63405 15.6571 7.05797 15.8327 7.5 15.8327ZM13.3333 11.666C13.3333 12.108 13.1577 12.532 12.8452 12.8445C12.5326 13.1571 12.1087 13.3327 11.6667 13.3327C11.2246 13.3327 10.8007 13.1571 10.4882 12.8445C10.1756 12.532 10 12.108 10 11.666C10 11.224 10.1756 10.8001 10.4882 10.4875C10.8007 10.1749 11.2246 9.99935 11.6667 9.99935C12.1087 9.99935 12.5326 10.1749 12.8452 10.4875C13.1577 10.8001 13.3333 11.224 13.3333 11.666Z" stroke="#2D3033" stroke-width="1.42857" stroke-linecap="round" stroke-linejoin="round"/>
</svg>