<svg width="16" height="16" viewBox="0 0 16 16" fill="none" xmlns="http://www.w3.org/2000/svg">
<rect width="16" height="16" fill="white"/>
<rect x="7.39999" y="2.59961" width="0.6" height="0.6" fill="#131814"/>
<rect x="7.4" y="2" width="0.6" height="0.6" fill="#131814"/>
<rect x="8" y="2" width="0.6" height="0.6" fill="#131814"/>
<rect x="8.6" y="2" width="0.6" height="0.6" fill="#131814"/>
<rect x="9.2" y="2.59961" width="0.6" height="0.6" fill="#131814"/>
<rect x="9.79999" y="2.59961" width="0.6" height="0.6" fill="#131814"/>
<rect x="9.79999" y="3.2002" width="0.6" height="0.6" fill="#131814"/>
<rect x="10.4" y="3.2002" width="0.6" height="0.6" fill="#131814"/>
<rect x="11" y="3.7998" width="0.6" height="0.6" fill="#131814"/>
<rect x="11" y="4.40039" width="0.6" height="0.6" fill="#131814"/>
<rect x="11.6" y="4.40039" width="0.6" height="0.6" fill="#131814"/>
<rect x="11.6" y="5" width="0.6" height="0.6" fill="#131814"/>
<rect x="12.2" y="5.59961" width="0.6" height="0.6" fill="#131814"/>
<rect x="12.2" y="6.2002" width="0.6" height="0.6" fill="#131814"/>
<rect x="12.2" y="6.7998" width="0.6" height="0.6" fill="#131814"/>
<rect x="12.2" y="7.40039" width="0.6" height="0.6" fill="#131814"/>
<rect x="12.2" y="8" width="0.6" height="0.6" fill="#131814"/>
<rect x="12.2" y="8.59961" width="0.6" height="0.6" fill="#131814"/>
<rect x="11.6" y="9.2002" width="0.6" height="0.6" fill="#131814"/>
<rect x="11.6" y="9.7998" width="0.6" height="0.6" fill="#131814"/>
<rect x="11" y="10.4004" width="0.6" height="0.6" fill="#131814"/>
<rect x="10.4" y="11" width="0.6" height="0.6" fill="#131814"/>
<rect x="9.79999" y="11.5996" width="0.6" height="0.6" fill="#131814"/>
<rect x="8" y="2.59961" width="0.6" height="0.6" fill="#131814"/>
<rect x="8.59999" y="2.59961" width="0.6" height="0.6" fill="#131814"/>
<rect x="8.59999" y="3.2002" width="0.6" height="0.6" fill="#131814"/>
<rect x="9.2" y="3.2002" width="0.6" height="0.6" fill="#131814"/>
<rect x="9.79999" y="3.7998" width="0.6" height="0.6" fill="#131814"/>
<rect x="10.4" y="3.7998" width="0.6" height="0.6" fill="#131814"/>
<rect x="10.4" y="4.40039" width="0.6" height="0.6" fill="#131814"/>
<rect x="11" y="5" width="0.6" height="0.6" fill="#131814"/>
<rect x="11.6" y="5.59961" width="0.6" height="0.6" fill="#131814"/>
<rect x="11" y="5.59961" width="0.6" height="0.6" fill="#131814"/>
<rect x="11.6" y="6.2002" width="0.6" height="0.6" fill="#131814"/>
<rect x="11.6" y="6.7998" width="0.6" height="0.6" fill="#131814"/>
<rect x="11.6" y="7.40039" width="0.6" height="0.6" fill="#131814"/>
<rect x="11.6" y="8" width="0.6" height="0.6" fill="#131814"/>
<rect x="11.6" y="8.59961" width="0.6" height="0.6" fill="#131814"/>
<rect x="11" y="8.59961" width="0.6" height="0.6" fill="#131814"/>
<rect x="11" y="9.2002" width="0.6" height="0.6" fill="#131814"/>
<rect x="11" y="9.7998" width="0.6" height="0.6" fill="#131814"/>
<rect x="10.4" y="9.7998" width="0.6" height="0.6" fill="#131814"/>
<rect x="10.4" y="10.4004" width="0.6" height="0.6" fill="#131814"/>
<rect x="9.79999" y="10.4004" width="0.6" height="0.6" fill="#131814"/>
<rect x="9.8" y="11" width="0.6" height="0.6" fill="#131814"/>
<rect x="9.2" y="11" width="0.6" height="0.6" fill="#131814"/>
<rect x="9.2" y="11.5996" width="0.6" height="0.6" fill="#131814"/>
<rect x="8.59999" y="11.5996" width="0.6" height="0.6" fill="#131814"/>
<rect x="8.6" y="11" width="0.6" height="0.6" fill="#131814"/>
<rect x="8" y="11.5996" width="0.6" height="0.6" fill="#131814"/>
<rect x="8" y="12.2002" width="0.6" height="0.6" fill="#131814"/>
<rect x="8.59999" y="12.2002" width="0.6" height="0.6" fill="#131814"/>
<rect x="7.39999" y="12.2002" width="0.6" height="0.6" fill="#131814"/>
<rect x="7.39999" y="11.5996" width="0.6" height="0.6" fill="#131814"/>
<rect width="0.6" height="0.6" transform="matrix(-1 0 0 1 7.39999 2.59961)" fill="#131814"/>
<rect width="0.6" height="0.6" transform="matrix(-1 0 0 1 7.4 2)" fill="#131814"/>
<rect width="0.6" height="0.6" transform="matrix(-1 0 0 1 6.8 2)" fill="#131814"/>
<rect width="0.6" height="0.6" transform="matrix(-1 0 0 1 6.2 2)" fill="#131814"/>
<rect width="0.6" height="0.6" transform="matrix(-1 0 0 1 5.59999 2.59961)" fill="#131814"/>
<rect width="0.6" height="0.6" transform="matrix(-1 0 0 1 5 2.59961)" fill="#131814"/>
<rect width="0.6" height="0.6" transform="matrix(-1 0 0 1 5 3.2002)" fill="#131814"/>
<rect width="0.6" height="0.6" transform="matrix(-1 0 0 1 4.39999 3.2002)" fill="#131814"/>
<rect width="0.6" height="0.6" transform="matrix(-1 0 0 1 3.79999 3.7998)" fill="#131814"/>
<rect width="0.6" height="0.6" transform="matrix(-1 0 0 1 3.79999 4.40039)" fill="#131814"/>
<rect width="0.6" height="0.6" transform="matrix(-1 0 0 1 3.2 4.40039)" fill="#131814"/>
<rect width="0.6" height="0.6" transform="matrix(-1 0 0 1 3.2 5)" fill="#131814"/>
<rect width="0.6" height="0.6" transform="matrix(-1 0 0 1 2.59999 5.59961)" fill="#131814"/>
<rect width="0.6" height="0.6" transform="matrix(-1 0 0 1 2.59999 6.2002)" fill="#131814"/>
<rect width="0.6" height="0.6" transform="matrix(-1 0 0 1 2.59999 6.7998)" fill="#131814"/>
<rect width="0.6" height="0.6" transform="matrix(-1 0 0 1 2.59999 7.40039)" fill="#131814"/>
<rect width="0.6" height="0.6" transform="matrix(-1 0 0 1 2.6 8)" fill="#131814"/>
<rect width="0.6" height="0.6" transform="matrix(-1 0 0 1 2.59999 8.59961)" fill="#131814"/>
<rect width="0.6" height="0.6" transform="matrix(-1 0 0 1 3.2 9.2002)" fill="#131814"/>
<rect width="0.6" height="0.6" transform="matrix(-1 0 0 1 3.2 9.7998)" fill="#131814"/>
<rect width="0.6" height="0.6" transform="matrix(-1 0 0 1 3.79999 10.4004)" fill="#131814"/>
<rect width="0.6" height="0.6" transform="matrix(-1 0 0 1 4.4 11)" fill="#131814"/>
<rect width="0.6" height="0.6" transform="matrix(-1 0 0 1 5 11.5996)" fill="#131814"/>
<rect width="0.6" height="0.6" transform="matrix(-1 0 0 1 6.79999 2.59961)" fill="#131814"/>
<rect width="0.6" height="0.6" transform="matrix(-1 0 0 1 6.2 2.59961)" fill="#131814"/>
<rect width="0.6" height="0.6" transform="matrix(-1 0 0 1 6.2 3.2002)" fill="#131814"/>
<rect width="0.6" height="0.6" transform="matrix(-1 0 0 1 5.59999 3.2002)" fill="#131814"/>
<rect width="0.6" height="0.6" transform="matrix(-1 0 0 1 5 3.7998)" fill="#131814"/>
<rect width="0.6" height="0.6" transform="matrix(-1 0 0 1 4.39999 3.7998)" fill="#131814"/>
<rect width="0.6" height="0.6" transform="matrix(-1 0 0 1 4.39999 4.40039)" fill="#131814"/>
<rect width="0.6" height="0.6" transform="matrix(-1 0 0 1 3.8 5)" fill="#131814"/>
<rect width="0.6" height="0.6" transform="matrix(-1 0 0 1 3.2 5.59961)" fill="#131814"/>
<rect width="0.6" height="0.6" transform="matrix(-1 0 0 1 3.79999 5.59961)" fill="#131814"/>
<rect width="0.6" height="0.6" transform="matrix(-1 0 0 1 3.2 6.2002)" fill="#131814"/>
<rect width="0.6" height="0.6" transform="matrix(-1 0 0 1 3.2 6.7998)" fill="#131814"/>
<rect width="0.6" height="0.6" transform="matrix(-1 0 0 1 3.2 7.40039)" fill="#131814"/>
<rect width="0.6" height="0.6" transform="matrix(-1 0 0 1 3.2 8)" fill="#131814"/>
<rect width="0.6" height="0.6" transform="matrix(-1 0 0 1 3.2 8.59961)" fill="#131814"/>
<rect width="0.6" height="0.6" transform="matrix(-1 0 0 1 3.79999 8.59961)" fill="#131814"/>
<rect width="0.6" height="0.6" transform="matrix(-1 0 0 1 3.79999 9.2002)" fill="#131814"/>
<rect width="0.6" height="0.6" transform="matrix(-1 0 0 1 3.79999 9.7998)" fill="#131814"/>
<rect width="0.6" height="0.6" transform="matrix(-1 0 0 1 4.39999 9.7998)" fill="#131814"/>
<rect width="0.6" height="0.6" transform="matrix(-1 0 0 1 4.39999 10.4004)" fill="#131814"/>
<rect width="0.6" height="0.6" transform="matrix(-1 0 0 1 5 10.4004)" fill="#131814"/>
<rect width="0.6" height="0.6" transform="matrix(-1 0 0 1 5 11)" fill="#131814"/>
<rect width="0.6" height="0.6" transform="matrix(-1 0 0 1 5.6 11)" fill="#131814"/>
<rect width="0.6" height="0.6" transform="matrix(-1 0 0 1 5.59999 11.5996)" fill="#131814"/>
<rect width="0.6" height="0.6" transform="matrix(-1 0 0 1 6.2 11.5996)" fill="#131814"/>
<rect width="0.6" height="0.6" transform="matrix(-1 0 0 1 6.2 11)" fill="#131814"/>
<rect width="0.6" height="0.6" transform="matrix(-1 0 0 1 6.79999 11.5996)" fill="#131814"/>
<rect width="0.6" height="0.6" transform="matrix(-1 0 0 1 6.79999 12.2002)" fill="#131814"/>
<rect width="0.6" height="0.6" transform="matrix(-1 0 0 1 6.2 12.2002)" fill="#131814"/>
<rect width="0.6" height="0.6" transform="matrix(-1 0 0 1 7.39999 12.2002)" fill="#131814"/>
<rect width="0.6" height="0.6" transform="matrix(-1 0 0 1 7.39999 11.5996)" fill="#131814"/>
<rect x="11" y="11" width="0.6" height="0.6" fill="#131814"/>
<rect x="11.6" y="11" width="0.6" height="0.6" fill="#131814"/>
<rect x="11.6" y="11.5996" width="0.6" height="0.6" fill="#131814"/>
<rect x="11" y="11.5996" width="0.6" height="0.6" fill="#131814"/>
<rect x="12.2" y="11.5996" width="0.6" height="0.6" fill="#131814"/>
<rect x="12.2" y="12.2002" width="0.6" height="0.6" fill="#131814"/>
<rect x="11.6" y="12.2002" width="0.6" height="0.6" fill="#131814"/>
<rect x="12.2" y="12.7998" width="0.6" height="0.6" fill="#131814"/>
<rect x="12.8" y="12.7998" width="0.6" height="0.6" fill="#131814"/>
<rect x="12.8" y="12.2002" width="0.6" height="0.6" fill="#131814"/>
<rect x="13.4" y="12.7998" width="0.6" height="0.6" fill="#131814"/>
<rect x="13.4" y="13.4004" width="0.6" height="0.6" fill="#131814"/>
<rect x="12.8" y="13.4004" width="0.6" height="0.6" fill="#131814"/>
<rect x="5.6" y="6.7998" width="1" height="1" fill="#131814"/>
<rect x="6.6" y="6.7998" width="1" height="1" fill="#131814"/>
<rect x="7.6" y="6.7998" width="1" height="1" fill="#131814"/>
<rect x="8.6" y="6.7998" width="1" height="1" fill="#131814"/>
<rect x="7" y="9.2002" width="1" height="1" transform="rotate(-90 7 9.2002)" fill="#131814"/>
<rect x="7" y="8.2002" width="1" height="1" transform="rotate(-90 7 8.2002)" fill="#131814"/>
<rect x="7" y="7.2002" width="1" height="1" transform="rotate(-90 7 7.2002)" fill="#131814"/>
<rect x="7" y="6.2002" width="1" height="1" transform="rotate(-90 7 6.2002)" fill="#131814"/>
</svg>
