<svg width="12" height="13" viewBox="0 0 12 13" fill="none" xmlns="http://www.w3.org/2000/svg">
<g clip-path="url(#clip0_0_9168)">
<path d="M8 3.80005C8 4.33048 7.78929 4.83919 7.41421 5.21426C7.03914 5.58934 6.53043 5.80005 6 5.80005C5.46957 5.80005 4.96086 5.58934 4.58579 5.21426C4.21071 4.83919 4 4.33048 4 3.80005C4 3.26962 4.21071 2.76091 4.58579 2.38584C4.96086 2.01076 5.46957 1.80005 6 1.80005C6.53043 1.80005 7.03914 2.01076 7.41421 2.38584C7.78929 2.76091 8 3.26962 8 3.80005ZM11.3333 5.13338C11.3333 5.487 11.1929 5.82614 10.9428 6.07619C10.6928 6.32624 10.3536 6.46672 10 6.46672C9.64638 6.46672 9.30724 6.32624 9.05719 6.07619C8.80714 5.82614 8.66667 5.487 8.66667 5.13338C8.66667 4.77976 8.80714 4.44062 9.05719 4.19057C9.30724 3.94052 9.64638 3.80005 10 3.80005C10.3536 3.80005 10.6928 3.94052 10.9428 4.19057C11.1929 4.44062 11.3333 4.77976 11.3333 5.13338ZM8.66667 9.80005C8.66667 9.0928 8.38572 8.41453 7.88562 7.91443C7.38552 7.41433 6.70724 7.13338 6 7.13338C5.29276 7.13338 4.61448 7.41433 4.11438 7.91443C3.61429 8.41453 3.33333 9.0928 3.33333 9.80005V11.8H8.66667V9.80005ZM3.33333 5.13338C3.33333 5.487 3.19286 5.82614 2.94281 6.07619C2.69276 6.32624 2.35362 6.46672 2 6.46672C1.64638 6.46672 1.30724 6.32624 1.05719 6.07619C0.807143 5.82614 0.666667 5.487 0.666667 5.13338C0.666667 4.77976 0.807143 4.44062 1.05719 4.19057C1.30724 3.94052 1.64638 3.80005 2 3.80005C2.35362 3.80005 2.69276 3.94052 2.94281 4.19057C3.19286 4.44062 3.33333 4.77976 3.33333 5.13338ZM10 11.8V9.80005C10.001 9.12224 9.82886 8.4554 9.5 7.86272C9.79556 7.78708 10.1045 7.77994 10.4032 7.84186C10.702 7.90378 10.9826 8.03311 11.2238 8.21999C11.4649 8.40687 11.6602 8.64636 11.7948 8.92019C11.9293 9.19402 11.9995 9.49496 12 9.80005V11.8H10ZM2.5 7.86272C2.17117 8.45541 1.99907 9.12224 2 9.80005V11.8H1.77147e-07V9.80005C-0.000128312 9.49474 0.0696422 9.19346 0.203965 8.91929C0.338287 8.64512 0.533596 8.40534 0.774923 8.21833C1.01625 8.03131 1.29719 7.90203 1.59621 7.84039C1.89523 7.77875 2.20439 7.78639 2.5 7.86272Z" fill="#813288"/>
</g>
<defs>
<clipPath id="clip0_0_9168">
<rect width="12" height="12" fill="white" transform="translate(0 0.5)"/>
</clipPath>
</defs>
</svg>
