<svg xmlns="http://www.w3.org/2000/svg" width="24" height="25" viewBox="0 0 24 25" fill="none">
  <path d="M8.25523 12.3733C8.74068 8.53791 12.2434 5.82225 16.0788 6.3077L22.0313 7.06112C22.5792 7.13047 22.9672 7.63086 22.8978 8.17877L21.0143 23.06C20.9449 23.608 20.4445 23.9959 19.8966 23.9266L13.9441 23.1731C10.1087 22.6877 7.39307 19.185 7.87852 15.3496L8.25523 12.3733Z" fill="#FFC698"/>
  <path d="M19.5 12.4287C19.5 11.1967 19.454 9.97565 19.362 8.76665C19.2912 7.8088 18.8787 6.90825 18.1996 6.2291C17.5204 5.54995 16.6199 5.13741 15.662 5.06665C13.2241 4.88273 10.7759 4.88273 8.338 5.06665C7.38015 5.13741 6.4796 5.54995 5.80045 6.2291C5.1213 6.90825 4.70876 7.8088 4.638 8.76665C4.621 8.98665 4.606 9.20765 4.592 9.42865M19.5 12.4287L22.5 9.42865M19.5 12.4287L16.5 9.42865M4.5 12.4287C4.5 13.6607 4.546 14.8817 4.638 16.0907C4.70876 17.0485 5.1213 17.9491 5.80045 18.6282C6.4796 19.3074 7.38015 19.7199 8.338 19.7907C10.7759 19.9747 13.2241 19.9747 15.662 19.7907C16.6199 19.7199 17.5204 19.3074 18.1996 18.6282C18.8787 17.9491 19.2912 17.0485 19.362 16.0907C19.379 15.8707 19.394 15.6497 19.408 15.4287M4.5 12.4287L7.5 15.4287M4.5 12.4287L1.5 15.4287" stroke="#3A3E41" stroke-width="1.5" stroke-linecap="round" stroke-linejoin="round"/>
</svg>
