<svg xmlns="http://www.w3.org/2000/svg" width="24" height="25" viewBox="0 0 24 25" fill="none">
  <g clip-path="url(#clip0_2554_62370)">
    <rect x="-0.000488281" y="7.42871" width="14" height="17" fill="#8AF8CD"/>
    <path d="M8.25002 19.1787C8.25002 19.5765 8.09198 19.9581 7.81068 20.2394C7.52937 20.5207 7.14784 20.6787 6.75002 20.6787C6.35219 20.6787 5.97066 20.5207 5.68936 20.2394C5.40805 19.9581 5.25002 19.5765 5.25002 19.1787M8.25002 19.1787C8.25002 18.7809 8.09198 18.3993 7.81068 18.118C7.52937 17.8367 7.14784 17.6787 6.75002 17.6787C6.35219 17.6787 5.97066 17.8367 5.68936 18.118C5.40805 18.3993 5.25002 18.7809 5.25002 19.1787M8.25002 19.1787H14.25M5.25002 19.1787H3.37502C3.07665 19.1787 2.7905 19.0602 2.57952 18.8492C2.36855 18.6382 2.25002 18.3521 2.25002 18.0537V14.6787M14.25 19.1787H16.5M14.25 19.1787V14.6787M2.25002 14.6787V7.0437C2.24843 6.76987 2.34848 6.50519 2.53081 6.30088C2.71313 6.09657 2.96477 5.96716 3.23702 5.9377C6.57006 5.59173 9.92997 5.59173 13.263 5.9377C13.828 5.9957 14.25 6.4757 14.25 7.0437V8.0017M2.25002 14.6787H14.25M19.5 19.1787C19.5 19.5765 19.342 19.9581 19.0607 20.2394C18.7794 20.5207 18.3978 20.6787 18 20.6787C17.6022 20.6787 17.2207 20.5207 16.9394 20.2394C16.6581 19.9581 16.5 19.5765 16.5 19.1787M19.5 19.1787C19.5 18.7809 19.342 18.3993 19.0607 18.118C18.7794 17.8367 18.3978 17.6787 18 17.6787C17.6022 17.6787 17.2207 17.8367 16.9394 18.118C16.6581 18.3993 16.5 18.7809 16.5 19.1787M19.5 19.1787H20.625C21.246 19.1787 21.754 18.6747 21.715 18.0547C21.5141 14.7523 20.4019 11.5703 18.502 8.8617C18.3211 8.60798 18.0848 8.39872 17.8111 8.24973C17.5373 8.10074 17.2333 8.01593 16.922 8.0017H14.25M14.25 8.0017V14.6787" stroke="#3A3E41" stroke-width="1.5" stroke-linecap="round" stroke-linejoin="round"/>
  </g>
  <defs>
    <clipPath id="clip0_2554_62370">
      <rect width="24" height="24" fill="white" transform="translate(0 0.428711)"/>
    </clipPath>
  </defs>
</svg>