<svg width="72" height="24" viewBox="0 0 72 24" fill="none" xmlns="http://www.w3.org/2000/svg">
<g clip-path="url(#clip0_1190_58641)">
<path d="M10 22C15.5228 22 20 17.5228 20 12C20 6.47715 15.5228 2 10 2C4.47715 2 0 6.47715 0 12C0 17.5228 4.47715 22 10 22Z" fill="#5F259F"/>
<path d="M13.7834 9.82525C13.7834 9.49948 13.5041 9.22012 13.1783 9.22012H12.0611L9.50064 6.28727C9.26792 6.00791 8.89552 5.91487 8.52311 6.00791L7.63862 6.28727C7.49893 6.33392 7.45229 6.52 7.54558 6.61304L10.3387 9.26676H6.10186C5.96218 9.26676 5.86914 9.3598 5.86914 9.49948V9.96493C5.86914 10.2907 6.14851 10.5701 6.47427 10.5701H7.12604V12.8047C7.12604 14.4807 8.01053 15.4585 9.5004 15.4585C9.96584 15.4585 10.3385 15.4118 10.8039 15.2257V16.7156C10.8039 17.1346 11.1297 17.4604 11.5487 17.4604H12.2005C12.3402 17.4604 12.4799 17.3207 12.4799 17.181V10.5237H13.5507C13.6904 10.5237 13.7834 10.4306 13.7834 10.2909V9.82525ZM10.8039 13.8289C10.5246 13.9686 10.1522 14.0152 9.8728 14.0152C9.12799 14.0152 8.75559 13.6428 8.75559 12.8047V10.5701H10.8039V13.8289Z" fill="white"/>
</g>
<g clip-path="url(#clip1_1190_58641)">
<path d="M39.7641 7.9242C38.7514 7.71929 37.1186 7.44216 36.6624 8.39546C35.2682 10.8103 34.4677 13.3377 33.8652 14.4221C33.9285 14.4587 36.7055 16.0698 36.9019 16.1652C37.5262 16.4681 38.5685 16.3318 39.0125 15.531C40.2443 13.3094 39.9312 13.8878 41.24 11.621C42.0857 10.1561 41.0283 8.17996 39.7641 7.9242Z" fill="#EA4335"/>
<path d="M31.0025 17.7279C30.3225 16.95 29.8237 15.3936 30.4212 14.522C32.1667 11.4986 33.564 9.66832 34.663 7.83374C35.2457 8.1702 37.5806 9.4946 37.736 9.63106C38.2577 10.0887 38.6898 10.9631 38.2183 11.748C36.9103 13.9255 36.3735 14.911 35.044 17.2138C34.1981 18.6791 31.852 18.6998 31.0025 17.7279Z" fill="#FDBD00"/>
<path d="M37.2647 6.38296C35.9043 5.58806 35.2051 5.69224 34.4736 5.80956C33.8085 5.97581 32.9093 6.45913 32.5302 7.08005C31.5739 8.64637 30.6681 10.1963 29.4947 12.2966C29.1333 12.9435 29.4016 13.7383 29.7351 14.0537C29.9611 14.2675 31.6242 15.1851 31.9311 15.317C32.3651 15.5036 33.0153 15.3738 33.4076 14.9701C33.5159 14.8586 35.9969 10.5971 36.6956 9.34021C36.9905 8.80981 37.2562 8.51629 37.6972 8.23335C38.5492 7.78627 39.2144 7.7286 40.2333 8.10117C40.2333 8.10117 38.0157 6.81581 37.2647 6.38296Z" fill="#2DA94F"/>
<path d="M28.5113 16.3839C27.1427 15.6033 26.8833 14.9457 26.6191 14.2535C26.4306 13.5945 26.3995 12.574 26.7477 11.9351C27.6261 10.3239 27.6198 10.3157 28.8521 8.24933C29.2316 7.6129 30.0541 7.44786 30.494 7.57896C30.7922 7.66777 32.4183 8.64927 32.686 8.84907C33.0647 9.13169 33.2774 9.75969 33.1239 10.3013C33.0814 10.4508 31.5269 13.179 30.7878 14.4126C30.4759 14.9331 30.3545 15.3099 30.33 15.8333C30.3688 16.7947 30.6515 17.3996 31.4836 18.0958C31.4836 18.0958 29.2617 16.8179 28.5113 16.3839Z" fill="#297AEC"/>
</g>
<g clip-path="url(#clip2_1190_58641)">
<path d="M69.4368 10.415C69.2644 9.92187 68.7943 9.56779 68.2423 9.56779H68.2308C67.8719 9.56779 67.5485 9.71713 67.3183 9.95691C67.0877 9.71713 66.7642 9.56779 66.4057 9.56779H66.3942C66.0787 9.56779 65.7904 9.68331 65.5689 9.87445V9.77724C65.5613 9.68042 65.4816 9.60434 65.3833 9.60434H64.5365C64.4329 9.60434 64.3493 9.68802 64.3493 9.79191V14.3904C64.3493 14.4943 64.433 14.5779 64.5365 14.5779H65.3833C65.4777 14.5779 65.5554 14.5074 65.5678 14.4162L65.5674 11.1151C65.5674 11.1035 65.5678 11.0928 65.569 11.082C65.5825 10.9346 65.6904 10.8136 65.861 10.7984H66.0171C66.0884 10.8048 66.1485 10.8298 66.1959 10.8677C66.2696 10.9262 66.3106 11.0163 66.3106 11.1151L66.3138 14.3999C66.3138 14.5039 66.3978 14.588 66.501 14.588H67.3478C67.4477 14.588 67.529 14.5083 67.5338 14.4091L67.5334 11.1107C67.533 11.0024 67.5832 10.9044 67.6712 10.8463C67.7146 10.8184 67.7668 10.7997 67.8269 10.794H67.983C68.1663 10.81 68.277 10.949 68.2766 11.1107L68.2798 14.3912C68.2798 14.4952 68.3639 14.5788 68.467 14.5788H69.3138C69.4169 14.5788 69.501 14.4951 69.501 14.3912V10.8631C69.501 10.6224 69.4739 10.5201 69.4368 10.415ZM63.7042 9.61635H63.2198V8.8293C63.2198 8.7349 63.1434 8.65845 63.049 8.65845C63.0378 8.65845 63.0271 8.66004 63.0167 8.66202C62.4797 8.80938 62.5873 9.55304 61.6071 9.61635H61.5119C61.4975 9.61635 61.484 9.61833 61.4708 9.62114H61.4701L61.4708 9.62152C61.3871 9.64022 61.3242 9.71432 61.3242 9.80354V10.6504C61.3242 10.7535 61.4083 10.8376 61.5118 10.8376H62.0228L62.0221 14.4284C62.0221 14.5307 62.1049 14.6136 62.2073 14.6136H63.0445C63.1465 14.6136 63.2293 14.5307 63.2293 14.4284L63.2297 10.8376H63.7041C63.8072 10.8376 63.8913 10.7535 63.8913 10.6504V9.80362C63.8914 9.70041 63.8074 9.61635 63.7042 9.61635Z" fill="#54C1F0"/>
<path d="M60.6604 9.6163H59.8136C59.7105 9.6163 59.6268 9.70036 59.6268 9.80349V11.5545C59.6248 11.6628 59.5372 11.7496 59.4284 11.7496H59.074C58.9641 11.7496 58.8752 11.6612 58.8752 11.5513L58.872 9.80349C58.872 9.70036 58.788 9.6163 58.6849 9.6163H57.838C57.7344 9.6163 57.6508 9.70036 57.6508 9.80349V11.7226C57.6508 12.4515 58.1706 12.9712 58.8999 12.9712C58.8999 12.9712 59.4471 12.9712 59.4639 12.9744C59.5627 12.9856 59.6395 13.0684 59.6395 13.1704C59.6395 13.2712 59.5642 13.3537 59.4666 13.366C59.4618 13.3667 59.4574 13.368 59.4522 13.3688L58.2139 13.3732C58.1103 13.3732 58.0267 13.4573 58.0267 13.5604V14.4068C58.0267 14.5104 58.1104 14.594 58.2139 14.594H59.5984C60.328 14.594 60.8474 14.0746 60.8474 13.3453V9.80357C60.8476 9.70036 60.764 9.6163 60.6604 9.6163ZM52.5384 9.61615H50.6875C50.586 9.61615 50.5039 9.69853 50.5039 9.79977V10.6295C50.5039 10.6311 50.5043 10.6327 50.5043 10.6342C50.5043 10.6382 50.5039 10.6422 50.5039 10.6458V14.401C50.5039 14.5029 50.5804 14.5862 50.6752 14.5885H51.538C51.6411 14.5885 51.7252 14.5048 51.7252 14.4013L51.7283 13.1144H52.5385C53.2164 13.1144 53.6888 12.6441 53.6888 11.9633V10.7688C53.6888 10.0881 53.2163 9.61615 52.5384 9.61615ZM52.4639 11.6905C52.4639 11.8 52.3751 11.8892 52.2656 11.8892L51.7283 11.8896V10.8425H52.2656C52.3751 10.8425 52.4639 10.9309 52.4639 11.0408V11.6905ZM55.8428 9.62094H54.6679C54.5639 9.62094 54.4798 9.69983 54.4798 9.79657V10.126C54.4798 10.1279 54.4802 10.1304 54.4802 10.1323C54.4802 10.1347 54.4798 10.1371 54.4798 10.1395V10.5908C54.4798 10.6931 54.5691 10.7767 54.679 10.7767H55.7978C55.8862 10.7907 55.9564 10.8552 55.9663 10.956V11.0651C55.9564 11.1611 55.8871 11.2311 55.8026 11.2391H55.2486C54.5117 11.2391 53.9868 11.7286 53.9868 12.4161V13.4007C53.9868 14.0842 54.438 14.5705 55.1697 14.5705H56.7052C56.9809 14.5705 57.2043 14.3618 57.2043 14.1049V10.892C57.2043 10.1129 56.8028 9.62094 55.8428 9.62094ZM55.9775 13.2882C55.9775 13.299 55.9759 13.3093 55.9743 13.3192C55.9723 13.3286 55.9696 13.3378 55.9663 13.3468C55.94 13.4209 55.8659 13.4746 55.7779 13.4746H55.4254C55.3155 13.4746 55.2259 13.3909 55.2259 13.2882V13.1284C55.2259 13.1264 55.2255 13.1245 55.2255 13.1224L55.2259 12.6974V12.5644L55.2262 12.5632C55.2266 12.4608 55.3155 12.378 55.4254 12.378H55.7779C55.8882 12.378 55.9774 12.4612 55.9774 12.5644V13.2882H55.9775Z" fill="#233266"/>
</g>
<defs>
<clipPath id="clip0_1190_58641">
<rect y="2" width="20" height="20" rx="10" fill="white"/>
</clipPath>
<clipPath id="clip1_1190_58641">
<rect width="15.8333" height="13.3127" fill="white" transform="translate(26.082 5.33337)"/>
</clipPath>
<clipPath id="clip2_1190_58641">
<rect width="19" height="5.9584" fill="white" transform="translate(50.5039 8.65686)"/>
</clipPath>
</defs>
</svg>
