<svg xmlns="http://www.w3.org/2000/svg" width="20" height="20" viewBox="0 0 20 20" fill="none">
<path d="M2.49988 10H9.99988V11.25H2.49988V10ZM1.24988 6.875H7.49988V8.125H1.24988V6.875Z" fill="#2D3033"/>
<path d="M18.6992 10.3787L16.8242 6.00375C16.7761 5.8913 16.696 5.79546 16.5939 5.72812C16.4918 5.66079 16.3722 5.62493 16.2498 5.625H14.3748V4.375C14.3748 4.20924 14.309 4.05027 14.1918 3.93306C14.0746 3.81585 13.9156 3.75 13.7498 3.75H3.74984V5H13.1248V12.8475C12.8401 13.0129 12.5908 13.233 12.3915 13.4952C12.1922 13.7573 12.0468 14.0563 11.9636 14.375H8.03609C7.88397 13.7858 7.5222 13.2724 7.01859 12.9309C6.51498 12.5894 5.9041 12.4433 5.30047 12.5199C4.69683 12.5966 4.14188 12.8908 3.73964 13.3474C3.3374 13.8039 3.11548 14.3915 3.11548 15C3.11548 15.6085 3.3374 16.1961 3.73964 16.6526C4.14188 17.1092 4.69683 17.4034 5.30047 17.4801C5.9041 17.5567 6.51498 17.4106 7.01859 17.0691C7.5222 16.7276 7.88397 16.2142 8.03609 15.625H11.9636C12.0996 16.1614 12.4105 16.6371 12.8472 16.977C13.2839 17.3168 13.8215 17.5013 14.3748 17.5013C14.9282 17.5013 15.4658 17.3168 15.9025 16.977C16.3392 16.6371 16.6501 16.1614 16.7861 15.625H18.1248C18.2906 15.625 18.4496 15.5592 18.5668 15.4419C18.684 15.3247 18.7498 15.1658 18.7498 15V10.625C18.7499 10.5403 18.7326 10.4565 18.6992 10.3787ZM5.62484 16.25C5.37762 16.25 5.13594 16.1767 4.93038 16.0393C4.72482 15.902 4.5646 15.7068 4.46999 15.4784C4.37538 15.2499 4.35063 14.9986 4.39886 14.7561C4.44709 14.5137 4.56614 14.2909 4.74096 14.1161C4.91578 13.9413 5.1385 13.8222 5.38098 13.774C5.62346 13.7258 5.87479 13.7505 6.1032 13.8451C6.3316 13.9398 6.52683 14.1 6.66418 14.3055C6.80153 14.5111 6.87484 14.7528 6.87484 15C6.87451 15.3314 6.74271 15.6492 6.50836 15.8835C6.27401 16.1179 5.95626 16.2497 5.62484 16.25ZM14.3748 6.875H15.8373L17.1773 10H14.3748V6.875ZM14.3748 16.25C14.1276 16.25 13.8859 16.1767 13.6804 16.0393C13.4748 15.902 13.3146 15.7068 13.22 15.4784C13.1254 15.2499 13.1006 14.9986 13.1489 14.7561C13.1971 14.5137 13.3161 14.2909 13.491 14.1161C13.6658 13.9413 13.8885 13.8222 14.131 13.774C14.3735 13.7258 14.6248 13.7505 14.8532 13.8451C15.0816 13.9398 15.2768 14.1 15.4142 14.3055C15.5515 14.5111 15.6248 14.7528 15.6248 15C15.6245 15.3314 15.4927 15.6492 15.2584 15.8835C15.024 16.1179 14.7063 16.2497 14.3748 16.25ZM17.4998 14.375H16.7861C16.6484 13.8396 16.337 13.3651 15.9006 13.0258C15.4642 12.6865 14.9276 12.5015 14.3748 12.5V11.25H17.4998V14.375Z" fill="#2D3033"/>
</svg>