<svg xmlns="http://www.w3.org/2000/svg" width="28" height="29" viewBox="0 0 28 29" fill="none">
  <rect x="8.16602" y="1.45239" width="16.3333" height="19.8333" fill="#F6B3FB"/>
  <path d="M22.75 16.9108V13.8483C22.75 12.804 22.3352 11.8025 21.5967 11.064C20.8583 10.3256 19.8568 9.91077 18.8125 9.91077H17.0625C16.7144 9.91077 16.3806 9.77249 16.1344 9.52634C15.8883 9.2802 15.75 8.94636 15.75 8.59827V6.84827C15.75 5.80398 15.3352 4.80246 14.5967 4.06403C13.8583 3.32561 12.8568 2.91077 11.8125 2.91077H9.625M9.625 17.7858H18.375M9.625 21.2858H14M12.25 2.91077H6.5625C5.838 2.91077 5.25 3.49877 5.25 4.22327V24.3483C5.25 25.0728 5.838 25.6608 6.5625 25.6608H21.4375C22.162 25.6608 22.75 25.0728 22.75 24.3483V13.4108C22.75 10.626 21.6438 7.95528 19.6746 5.98615C17.7055 4.01701 15.0348 2.91077 12.25 2.91077Z" stroke="#3A3E41" stroke-width="1.75" stroke-linecap="round" stroke-linejoin="round"/>
</svg>