<svg width="28" height="29" viewBox="0 0 28 29" fill="none" xmlns="http://www.w3.org/2000/svg">
<g clip-path="url(#clip0_963_139568)">
<rect x="5.63086" y="7.27075" width="16.3333" height="19.8333" transform="rotate(-23.781 5.63086 7.27075)" fill="#BEDBF6"/>
<path d="M15.6137 6.15735L17.2562 9.46946C17.4802 9.93052 18.0774 10.3728 18.5814 10.4574L21.5584 10.9561C23.4622 11.2761 23.9102 12.6687 22.5383 14.0424L20.2239 16.376C19.8319 16.7711 19.6173 17.5333 19.7386 18.0791L20.4013 20.9678C20.9238 23.2543 19.7199 24.1388 17.7135 22.9437L14.9231 21.2783C14.4192 20.9772 13.5887 20.9772 13.0753 21.2783L10.285 22.9437C8.2879 24.1388 7.07471 23.2448 7.59732 20.9678L8.25991 18.0791C8.38122 17.5333 8.16658 16.7711 7.77462 16.376L5.46022 14.0424C4.0977 12.6687 4.53632 11.2761 6.44011 10.9561L9.41711 10.4574C9.91172 10.3728 10.509 9.93052 10.733 9.46946L12.3754 6.15735C13.2713 4.36015 14.7271 4.36015 15.6137 6.15735Z" stroke="#3A3E41" stroke-width="1.75" stroke-linecap="round" stroke-linejoin="round"/>
</g>
<defs>
<clipPath id="clip0_963_139568">
<rect width="28" height="28" fill="white" transform="translate(0 0.142822)"/>
</clipPath>
</defs>
</svg>
