<svg width="16" height="16" viewBox="0 0 16 16" fill="none" xmlns="http://www.w3.org/2000/svg">
<rect width="16" height="16" fill="white"/>
<rect x="7.4" y="2.59863" width="0.6" height="0.6" fill="#131814"/>
<rect x="7.4" y="2" width="0.6" height="0.6" fill="#131814"/>
<rect x="8" y="2" width="0.6" height="0.6" fill="#131814"/>
<rect x="8.6" y="2" width="0.6" height="0.6" fill="#131814"/>
<rect x="9.2" y="2.59863" width="0.6" height="0.6" fill="#131814"/>
<rect x="9.8" y="2.59863" width="0.6" height="0.6" fill="#131814"/>
<rect x="9.8" y="3.19922" width="0.6" height="0.6" fill="#131814"/>
<rect x="10.4" y="3.19922" width="0.6" height="0.6" fill="#131814"/>
<rect x="11" y="3.80078" width="0.6" height="0.6" fill="#131814"/>
<rect x="11" y="4.40137" width="0.6" height="0.6" fill="#131814"/>
<rect x="11.6" y="4.40137" width="0.6" height="0.6" fill="#131814"/>
<rect x="11.6" y="5" width="0.6" height="0.6" fill="#131814"/>
<rect x="12.2" y="5.59863" width="0.6" height="0.6" fill="#131814"/>
<rect x="12.2" y="6.19922" width="0.6" height="0.6" fill="#131814"/>
<rect x="12.2" y="6.80078" width="0.6" height="0.6" fill="#131814"/>
<rect x="12.2" y="7.40137" width="0.6" height="0.6" fill="#131814"/>
<rect x="12.2" y="8" width="0.6" height="0.6" fill="#131814"/>
<rect x="12.2" y="8.59863" width="0.6" height="0.6" fill="#131814"/>
<rect x="11.6" y="9.19922" width="0.6" height="0.6" fill="#131814"/>
<rect x="11.6" y="9.80078" width="0.6" height="0.6" fill="#131814"/>
<rect x="11" y="10.4014" width="0.6" height="0.6" fill="#131814"/>
<rect x="10.4" y="11" width="0.6" height="0.6" fill="#131814"/>
<rect x="9.8" y="11.5986" width="0.6" height="0.6" fill="#131814"/>
<rect x="8" y="2.59863" width="0.6" height="0.6" fill="#131814"/>
<rect x="8.6" y="2.59863" width="0.6" height="0.6" fill="#131814"/>
<rect x="8.6" y="3.19922" width="0.6" height="0.6" fill="#131814"/>
<rect x="9.2" y="3.19922" width="0.6" height="0.6" fill="#131814"/>
<rect x="9.8" y="3.80078" width="0.6" height="0.6" fill="#131814"/>
<rect x="10.4" y="3.80078" width="0.6" height="0.6" fill="#131814"/>
<rect x="10.4" y="4.40137" width="0.6" height="0.6" fill="#131814"/>
<rect x="11" y="5" width="0.6" height="0.6" fill="#131814"/>
<rect x="11.6" y="5.59863" width="0.6" height="0.6" fill="#131814"/>
<rect x="11" y="5.59863" width="0.6" height="0.6" fill="#131814"/>
<rect x="11.6" y="6.19922" width="0.6" height="0.6" fill="#131814"/>
<rect x="11.6" y="6.80078" width="0.6" height="0.6" fill="#131814"/>
<rect x="11.6" y="7.40137" width="0.6" height="0.6" fill="#131814"/>
<rect x="11.6" y="8" width="0.6" height="0.6" fill="#131814"/>
<rect x="11.6" y="8.59863" width="0.6" height="0.6" fill="#131814"/>
<rect x="11" y="8.59863" width="0.6" height="0.6" fill="#131814"/>
<rect x="11" y="9.19922" width="0.6" height="0.6" fill="#131814"/>
<rect x="11" y="9.80078" width="0.6" height="0.6" fill="#131814"/>
<rect x="10.4" y="9.80078" width="0.6" height="0.6" fill="#131814"/>
<rect x="10.4" y="10.4014" width="0.6" height="0.6" fill="#131814"/>
<rect x="9.8" y="10.4014" width="0.6" height="0.6" fill="#131814"/>
<rect x="9.8" y="11" width="0.6" height="0.6" fill="#131814"/>
<rect x="9.2" y="11" width="0.6" height="0.6" fill="#131814"/>
<rect x="9.2" y="11.5986" width="0.6" height="0.6" fill="#131814"/>
<rect x="8.6" y="11.5986" width="0.6" height="0.6" fill="#131814"/>
<rect x="8.6" y="11" width="0.6" height="0.6" fill="#131814"/>
<rect x="8" y="11.5986" width="0.6" height="0.6" fill="#131814"/>
<rect x="8" y="12.1992" width="0.6" height="0.6" fill="#131814"/>
<rect x="8.6" y="12.1992" width="0.6" height="0.6" fill="#131814"/>
<rect x="7.4" y="12.1992" width="0.6" height="0.6" fill="#131814"/>
<rect x="7.4" y="11.5986" width="0.6" height="0.6" fill="#131814"/>
<rect width="0.6" height="0.6" transform="matrix(-1 0 0 1 7.4 2.59863)" fill="#131814"/>
<rect width="0.6" height="0.6" transform="matrix(-1 0 0 1 7.4 2)" fill="#131814"/>
<rect width="0.6" height="0.6" transform="matrix(-1 0 0 1 6.8 2)" fill="#131814"/>
<rect width="0.6" height="0.6" transform="matrix(-1 0 0 1 6.2 2)" fill="#131814"/>
<rect width="0.6" height="0.6" transform="matrix(-1 0 0 1 5.6 2.59863)" fill="#131814"/>
<rect width="0.6" height="0.6" transform="matrix(-1 0 0 1 5 2.59863)" fill="#131814"/>
<rect width="0.6" height="0.6" transform="matrix(-1 0 0 1 5 3.19922)" fill="#131814"/>
<rect width="0.6" height="0.6" transform="matrix(-1 0 0 1 4.4 3.19922)" fill="#131814"/>
<rect width="0.6" height="0.6" transform="matrix(-1 0 0 1 3.8 3.80078)" fill="#131814"/>
<rect width="0.6" height="0.6" transform="matrix(-1 0 0 1 3.8 4.40137)" fill="#131814"/>
<rect width="0.6" height="0.6" transform="matrix(-1 0 0 1 3.2 4.40137)" fill="#131814"/>
<rect width="0.6" height="0.6" transform="matrix(-1 0 0 1 3.2 5)" fill="#131814"/>
<rect width="0.6" height="0.6" transform="matrix(-1 0 0 1 2.6 5.59863)" fill="#131814"/>
<rect width="0.6" height="0.6" transform="matrix(-1 0 0 1 2.6 6.19922)" fill="#131814"/>
<rect width="0.6" height="0.6" transform="matrix(-1 0 0 1 2.6 6.80078)" fill="#131814"/>
<rect width="0.6" height="0.6" transform="matrix(-1 0 0 1 2.6 7.40137)" fill="#131814"/>
<rect width="0.6" height="0.6" transform="matrix(-1 0 0 1 2.6 8)" fill="#131814"/>
<rect width="0.6" height="0.6" transform="matrix(-1 0 0 1 2.6 8.59863)" fill="#131814"/>
<rect width="0.6" height="0.6" transform="matrix(-1 0 0 1 3.2 9.19922)" fill="#131814"/>
<rect width="0.6" height="0.6" transform="matrix(-1 0 0 1 3.2 9.80078)" fill="#131814"/>
<rect width="0.6" height="0.6" transform="matrix(-1 0 0 1 3.8 10.4014)" fill="#131814"/>
<rect width="0.6" height="0.6" transform="matrix(-1 0 0 1 4.4 11)" fill="#131814"/>
<rect width="0.6" height="0.6" transform="matrix(-1 0 0 1 5 11.5986)" fill="#131814"/>
<rect width="0.6" height="0.6" transform="matrix(-1 0 0 1 6.8 2.59863)" fill="#131814"/>
<rect width="0.6" height="0.6" transform="matrix(-1 0 0 1 6.2 2.59863)" fill="#131814"/>
<rect width="0.6" height="0.6" transform="matrix(-1 0 0 1 6.2 3.19922)" fill="#131814"/>
<rect width="0.6" height="0.6" transform="matrix(-1 0 0 1 5.6 3.19922)" fill="#131814"/>
<rect width="0.6" height="0.6" transform="matrix(-1 0 0 1 5 3.80078)" fill="#131814"/>
<rect width="0.6" height="0.6" transform="matrix(-1 0 0 1 4.4 3.80078)" fill="#131814"/>
<rect width="0.6" height="0.6" transform="matrix(-1 0 0 1 4.4 4.40137)" fill="#131814"/>
<rect width="0.6" height="0.6" transform="matrix(-1 0 0 1 3.8 5)" fill="#131814"/>
<rect width="0.6" height="0.6" transform="matrix(-1 0 0 1 3.2 5.59863)" fill="#131814"/>
<rect width="0.6" height="0.6" transform="matrix(-1 0 0 1 3.8 5.59863)" fill="#131814"/>
<rect width="0.6" height="0.6" transform="matrix(-1 0 0 1 3.2 6.19922)" fill="#131814"/>
<rect width="0.6" height="0.6" transform="matrix(-1 0 0 1 3.2 6.80078)" fill="#131814"/>
<rect width="0.6" height="0.6" transform="matrix(-1 0 0 1 3.2 7.40137)" fill="#131814"/>
<rect width="0.6" height="0.6" transform="matrix(-1 0 0 1 3.2 8)" fill="#131814"/>
<rect width="0.6" height="0.6" transform="matrix(-1 0 0 1 3.2 8.59863)" fill="#131814"/>
<rect width="0.6" height="0.6" transform="matrix(-1 0 0 1 3.8 8.59863)" fill="#131814"/>
<rect width="0.6" height="0.6" transform="matrix(-1 0 0 1 3.8 9.19922)" fill="#131814"/>
<rect width="0.6" height="0.6" transform="matrix(-1 0 0 1 3.8 9.80078)" fill="#131814"/>
<rect width="0.6" height="0.6" transform="matrix(-1 0 0 1 4.4 9.80078)" fill="#131814"/>
<rect width="0.6" height="0.6" transform="matrix(-1 0 0 1 4.4 10.4014)" fill="#131814"/>
<rect width="0.6" height="0.6" transform="matrix(-1 0 0 1 5 10.4014)" fill="#131814"/>
<rect width="0.6" height="0.6" transform="matrix(-1 0 0 1 5 11)" fill="#131814"/>
<rect width="0.6" height="0.6" transform="matrix(-1 0 0 1 5.6 11)" fill="#131814"/>
<rect width="0.6" height="0.6" transform="matrix(-1 0 0 1 5.6 11.5986)" fill="#131814"/>
<rect width="0.6" height="0.6" transform="matrix(-1 0 0 1 6.2 11.5986)" fill="#131814"/>
<rect width="0.6" height="0.6" transform="matrix(-1 0 0 1 6.2 11)" fill="#131814"/>
<rect width="0.6" height="0.6" transform="matrix(-1 0 0 1 6.8 11.5986)" fill="#131814"/>
<rect width="0.6" height="0.6" transform="matrix(-1 0 0 1 6.8 12.1992)" fill="#131814"/>
<rect width="0.6" height="0.6" transform="matrix(-1 0 0 1 6.2 12.1992)" fill="#131814"/>
<rect width="0.6" height="0.6" transform="matrix(-1 0 0 1 7.4 12.1992)" fill="#131814"/>
<rect width="0.6" height="0.6" transform="matrix(-1 0 0 1 7.4 11.5986)" fill="#131814"/>
<rect x="11" y="11" width="0.6" height="0.6" fill="#131814"/>
<rect x="11.6" y="11" width="0.6" height="0.6" fill="#131814"/>
<rect x="11.6" y="11.5986" width="0.6" height="0.6" fill="#131814"/>
<rect x="11" y="11.5986" width="0.6" height="0.6" fill="#131814"/>
<rect x="12.2" y="11.5986" width="0.6" height="0.6" fill="#131814"/>
<rect x="12.2" y="12.1992" width="0.6" height="0.6" fill="#131814"/>
<rect x="11.6" y="12.1992" width="0.6" height="0.6" fill="#131814"/>
<rect x="12.2" y="12.8008" width="0.6" height="0.6" fill="#131814"/>
<rect x="12.8" y="12.8008" width="0.6" height="0.6" fill="#131814"/>
<rect x="12.8" y="12.1992" width="0.6" height="0.6" fill="#131814"/>
<rect x="13.4" y="12.8008" width="0.6" height="0.6" fill="#131814"/>
<rect x="13.4" y="13.4014" width="0.6" height="0.6" fill="#131814"/>
<rect x="12.8" y="13.4014" width="0.6" height="0.6" fill="#131814"/>
<rect x="5.39999" y="6.80078" width="1" height="1" fill="#131814"/>
<rect x="6.39999" y="6.80078" width="1" height="1" fill="#131814"/>
<rect x="7.39999" y="6.80078" width="1" height="1" fill="#131814"/>
<rect x="8.39999" y="6.80078" width="1" height="1" fill="#131814"/>
</svg>