<svg xmlns="http://www.w3.org/2000/svg" width="16" height="16" viewBox="0 0 16 16" fill="none">
<path d="M4.81137 7.27152C4.64994 6.98106 4.39664 6.75243 4.09122 6.62151C3.78579 6.49059 3.44554 6.4648 3.12387 6.54818C2.8022 6.63156 2.51732 6.81939 2.31396 7.08219C2.11059 7.34499 2.00024 7.66789 2.00024 8.00019C2.00024 8.33249 2.11059 8.65538 2.31396 8.91819C2.51732 9.18099 2.8022 9.36882 3.12387 9.4522C3.44554 9.53558 3.78579 9.50979 4.09122 9.37887C4.39664 9.24795 4.64994 9.01931 4.81137 8.72886M4.81137 7.27152C4.93137 7.48752 5.00003 7.73552 5.00003 8.00019C5.00003 8.26486 4.93137 8.51352 4.81137 8.72886M4.81137 7.27152L11.1887 3.72886M4.81137 8.72886L11.1887 12.2715M11.1887 3.72886C11.2822 3.90495 11.4099 4.06063 11.5642 4.18681C11.7186 4.31298 11.8966 4.40712 12.0878 4.46371C12.279 4.5203 12.4795 4.5382 12.6777 4.51638C12.8759 4.49457 13.0677 4.43346 13.242 4.33663C13.4163 4.2398 13.5695 4.1092 13.6927 3.95246C13.816 3.79573 13.9067 3.61599 13.9596 3.42378C14.0126 3.23156 14.0267 3.03072 14.0011 2.83299C13.9756 2.63526 13.9108 2.44461 13.8107 2.27219C13.6134 1.93242 13.2907 1.68361 12.9119 1.57926C12.5331 1.47492 12.1285 1.52335 11.7851 1.71416C11.4416 1.90497 11.1867 2.22291 11.0752 2.59965C10.9637 2.97639 11.0044 3.38184 11.1887 3.72886ZM11.1887 12.2715C11.093 12.4438 11.0322 12.6332 11.0097 12.8289C10.9872 13.0247 11.0035 13.223 11.0576 13.4124C11.1118 13.6019 11.2027 13.7788 11.3252 13.9332C11.4477 14.0875 11.5995 14.2162 11.7717 14.3119C11.944 14.4075 12.1334 14.4684 12.3291 14.4909C12.5249 14.5133 12.7231 14.4971 12.9126 14.4429C13.1021 14.3888 13.279 14.2979 13.4333 14.1753C13.5877 14.0528 13.7163 13.9011 13.812 13.7289C14.0053 13.381 14.0524 12.9706 13.9431 12.5879C13.8338 12.2053 13.5769 11.8818 13.229 11.6885C12.8812 11.4953 12.4708 11.4481 12.0881 11.5575C11.7055 11.6668 11.382 11.9236 11.1887 12.2715Z" stroke="#131814" stroke-width="1.4" stroke-linecap="round" stroke-linejoin="round"/>
</svg>