<svg xmlns="http://www.w3.org/2000/svg" width="20" height="20" viewBox="0 0 20 20" fill="none">
<rect width="20" height="20" transform="matrix(1 0 0 -1 0 20)" fill="white"/>
<rect width="2.19546" height="2.08928" transform="matrix(1 0 0.0153903 0.999882 12.2207 10.9952)" fill="#297FCF"/>
<rect width="2.19546" height="2.08928" transform="matrix(1 0 0.0153903 0.999882 10.0566 13.084)" fill="#297FCF"/>
<rect width="2.19546" height="2.08928" transform="matrix(1 0 0.0153903 0.999882 12.1885 8.90601)" fill="#297FCF"/>
<rect width="2.19546" height="2.08928" transform="matrix(1 0 0.0153903 0.999882 12.1562 6.81714)" fill="#297FCF"/>
<rect width="2.19546" height="2.08928" transform="matrix(1 0 0.0153903 0.999882 9.92871 4.72827)" fill="#297FCF"/>
<rect width="2.19546" height="2.08928" transform="matrix(1 0 0.0153903 0.999882 14.3838 8.90613)" fill="#297FCF"/>
<rect width="2.19546" height="2.08928" transform="matrix(1 0 0.0153903 0.999882 3.40723 8.90613)" fill="#297FCF"/>
<rect width="2.19546" height="2.08928" transform="matrix(1 0 0.0153903 0.999882 5.60254 8.90613)" fill="#297FCF"/>
<rect width="2.19546" height="2.08928" transform="matrix(1 0 0.0153903 0.999882 7.79785 8.90588)" fill="#297FCF"/>
<rect width="2.19546" height="2.08928" transform="matrix(1 0 0.0153903 0.999882 9.99316 8.90588)" fill="#297FCF"/>
</svg>