<svg xmlns="http://www.w3.org/2000/svg" width="360" height="86" viewBox="0 0 360 86" fill="none">
<path fill-rule="evenodd" clip-rule="evenodd" d="M0 0H360V30V85.5L322.339 66.197C311.394 60.5876 298.478 60.3245 287.314 65.4835L263.302 76.5803C251.233 82.1573 237.183 81.3739 225.81 74.49L214.933 67.9066C213.854 51.2092 199.97 38 183 38C165.327 38 151 52.3269 151 70C151 70.9163 151.039 71.8237 151.114 72.7205L146.564 75.4742C136.102 81.8066 123.318 83.0051 111.861 78.7273L69.7956 63.0213C59.9912 59.3606 49.1425 59.6882 39.5769 63.9339L0 81.5V30V0Z" fill="#9FE4C9"/>
</svg>